<svg width="336" height="298" viewBox="0 0 336 298" fill="none" xmlns="http://www.w3.org/2000/svg">
<rect width="188.604" height="252.869" rx="16.5435" transform="matrix(0.966002 -0.258535 0.259104 0.965849 0 48.7607)" fill="#242426"/>
<rect width="188.604" height="252.869" rx="16.5435" transform="matrix(0.966002 0.258535 0.259104 -0.965849 88.2881 244.233)" fill="#242426"/>
<rect x="58.0703" y="2.1665" width="220.685" height="295.833" rx="16.5435" fill="#323537"/>
<path d="M172.816 189.607C172.523 189.605 172.241 189.489 172.032 189.284C171.931 189.18 171.851 189.057 171.796 188.923C171.737 188.792 171.707 188.649 171.707 188.504C171.706 188.357 171.736 188.212 171.796 188.078C171.82 188.009 171.855 187.944 171.899 187.887C171.936 187.827 171.981 187.772 172.032 187.725C172.472 187.31 173.161 187.31 173.6 187.725C174.033 188.155 174.033 188.853 173.6 189.284C173.392 189.491 173.11 189.607 172.816 189.607Z" fill="#565B5F"/>
<path fill-rule="evenodd" clip-rule="evenodd" d="M129.807 187.401C129.195 187.401 128.698 187.895 128.698 188.504H128.676C128.676 188.801 128.796 189.085 129.008 189.292C129.221 189.5 129.509 189.613 129.807 189.607C130.42 189.607 130.916 189.114 130.916 188.504C130.916 187.895 130.42 187.401 129.807 187.401ZM134.843 188.504C134.843 187.895 135.34 187.401 135.953 187.401C136.565 187.401 137.062 187.895 137.062 188.504C137.062 189.114 136.565 189.607 135.953 189.607C135.655 189.611 135.369 189.497 135.156 189.29C134.944 189.083 134.823 188.8 134.821 188.504H134.843ZM142.105 187.401C141.492 187.401 140.996 187.895 140.996 188.504H140.974C140.974 188.801 141.093 189.085 141.306 189.292C141.519 189.5 141.807 189.613 142.105 189.607C142.718 189.607 143.214 189.114 143.214 188.504C143.214 187.895 142.718 187.401 142.105 187.401ZM147.141 188.504C147.141 187.895 147.638 187.401 148.25 187.401C148.863 187.401 149.36 187.895 149.36 188.504C149.36 189.114 148.863 189.607 148.25 189.607C147.948 189.619 147.655 189.509 147.437 189.3C147.219 189.092 147.096 188.805 147.097 188.504H147.141ZM154.396 187.401C153.783 187.401 153.286 187.895 153.286 188.504H153.264C153.264 188.801 153.384 189.085 153.597 189.292C153.81 189.5 154.097 189.613 154.396 189.607C155.008 189.607 155.505 189.114 155.505 188.504C155.505 187.895 155.008 187.401 154.396 187.401ZM159.439 188.504C159.439 187.895 159.935 187.401 160.548 187.401C161.161 187.401 161.657 187.895 161.657 188.504C161.653 189.112 161.159 189.603 160.548 189.607C160.25 189.613 159.962 189.5 159.749 189.292C159.536 189.085 159.416 188.801 159.417 188.504H159.439ZM165.584 188.504C165.584 187.895 166.081 187.401 166.693 187.401C167.306 187.401 167.802 187.895 167.802 188.504C167.802 189.114 167.306 189.607 166.693 189.607C166.081 189.607 165.584 189.114 165.584 188.504Z" fill="#565B5F"/>
<path d="M123.64 189.607C123.345 189.607 123.064 189.491 122.856 189.284C122.645 189.079 122.528 188.797 122.53 188.504C122.531 188.212 122.648 187.931 122.856 187.725C122.905 187.671 122.963 187.623 123.026 187.585C123.085 187.542 123.15 187.508 123.218 187.482C123.284 187.452 123.354 187.43 123.425 187.416C123.567 187.394 123.712 187.394 123.854 187.416C123.925 187.43 123.995 187.452 124.061 187.482C124.129 187.509 124.193 187.544 124.253 187.585C124.315 187.625 124.372 187.672 124.423 187.725C124.632 187.931 124.749 188.212 124.749 188.504C124.747 188.796 124.63 189.076 124.423 189.284C124.216 189.491 123.934 189.607 123.64 189.607Z" fill="#565B5F"/>
<path fill-rule="evenodd" clip-rule="evenodd" d="M123.64 146.611C123.027 146.611 122.53 147.105 122.53 147.714C122.53 148.323 123.027 148.817 123.64 148.817C124.252 148.817 124.749 148.323 124.749 147.714C124.749 147.105 124.252 146.611 123.64 146.611ZM122.53 153.538C122.53 152.929 123.027 152.435 123.64 152.435C124.252 152.435 124.749 152.929 124.749 153.538C124.749 154.147 124.252 154.641 123.64 154.641C123.027 154.641 122.53 154.147 122.53 153.538ZM123.64 158.266C123.027 158.266 122.53 158.76 122.53 159.369C122.53 159.979 123.027 160.472 123.64 160.472C124.252 160.472 124.749 159.979 124.749 159.369C124.749 158.76 124.252 158.266 123.64 158.266ZM122.53 165.194C122.53 164.584 123.027 164.09 123.64 164.09C124.252 164.09 124.749 164.584 124.749 165.194C124.749 165.803 124.252 166.297 123.64 166.297C123.027 166.297 122.53 165.803 122.53 165.194ZM123.64 169.922C123.027 169.922 122.53 170.416 122.53 171.025V171.04C122.53 171.649 123.027 172.143 123.64 172.143C124.252 172.143 124.749 171.649 124.749 171.04C124.753 170.745 124.638 170.46 124.429 170.25C124.221 170.04 123.936 169.922 123.64 169.922ZM122.53 176.849C122.53 176.24 123.027 175.746 123.64 175.746C124.252 175.746 124.749 176.24 124.749 176.849C124.749 177.458 124.252 177.952 123.64 177.952C123.027 177.952 122.53 177.458 122.53 176.849ZM122.53 182.673C122.53 182.064 123.027 181.57 123.64 181.57C124.252 181.57 124.749 182.064 124.749 182.673C124.749 183.282 124.252 183.776 123.64 183.776C123.027 183.776 122.53 183.282 122.53 182.673Z" fill="#565B5F"/>
<path d="M123.64 142.993C123.345 142.992 123.063 142.876 122.856 142.669C122.649 142.462 122.532 142.182 122.53 141.89C122.531 141.597 122.648 141.317 122.856 141.11C122.905 141.056 122.963 141.009 123.026 140.97C123.087 140.938 123.152 140.911 123.218 140.89L123.432 140.809C123.574 140.779 123.72 140.779 123.861 140.809L124.068 140.867L124.261 140.97C124.322 141.011 124.379 141.058 124.431 141.11C124.639 141.317 124.756 141.597 124.756 141.89C124.756 142.499 124.26 142.993 123.647 142.993H123.64Z" fill="#565B5F"/>
<path fill-rule="evenodd" clip-rule="evenodd" d="M129.807 140.787C129.195 140.787 128.698 141.28 128.698 141.89H128.676C128.676 142.186 128.796 142.47 129.008 142.678C129.221 142.885 129.509 142.999 129.807 142.993C130.42 142.993 130.916 142.499 130.916 141.89C130.916 141.28 130.42 140.787 129.807 140.787ZM134.843 141.89C134.843 141.28 135.34 140.787 135.953 140.787C136.565 140.787 137.062 141.28 137.062 141.89C137.062 142.499 136.565 142.993 135.953 142.993C135.655 142.999 135.367 142.885 135.154 142.678C134.941 142.47 134.821 142.186 134.821 141.89H134.843ZM142.105 140.787C141.492 140.787 140.996 141.28 140.996 141.89H140.974C140.974 142.186 141.093 142.47 141.306 142.678C141.519 142.885 141.807 142.999 142.105 142.993C142.718 142.993 143.214 142.499 143.214 141.89C143.214 141.28 142.718 140.787 142.105 140.787ZM147.141 141.89C147.141 141.28 147.638 140.787 148.25 140.787C148.863 140.787 149.36 141.28 149.36 141.89C149.36 142.499 148.863 142.993 148.25 142.993C147.948 143.005 147.655 142.894 147.437 142.686C147.219 142.477 147.096 142.19 147.097 141.89H147.141ZM154.396 140.787C153.783 140.787 153.286 141.28 153.286 141.89H153.264C153.264 142.186 153.384 142.47 153.597 142.678C153.81 142.885 154.097 142.999 154.396 142.993C155.008 142.993 155.505 142.499 155.505 141.89C155.505 141.28 155.008 140.787 154.396 140.787ZM159.439 141.89C159.439 141.28 159.935 140.787 160.548 140.787C161.161 140.787 161.657 141.28 161.657 141.89C161.657 142.499 161.161 142.993 160.548 142.993C160.25 142.999 159.962 142.885 159.749 142.678C159.536 142.47 159.416 142.186 159.417 141.89H159.439ZM165.584 141.89C165.584 141.28 166.081 140.787 166.693 140.787C167.306 140.787 167.802 141.28 167.802 141.89C167.802 142.499 167.306 142.993 166.693 142.993C166.081 142.993 165.584 142.499 165.584 141.89Z" fill="#565B5F"/>
<path d="M172.816 142.993C172.443 142.996 172.095 142.811 171.889 142.503C171.683 142.194 171.648 141.803 171.795 141.463C171.821 141.395 171.856 141.331 171.899 141.272C171.937 141.213 171.981 141.159 172.032 141.11C172.296 140.851 172.673 140.738 173.038 140.809L173.245 140.868C173.309 140.897 173.37 140.932 173.429 140.97C173.492 141.009 173.55 141.056 173.6 141.11C173.652 141.159 173.699 141.213 173.74 141.272C173.74 141.338 173.814 141.397 173.844 141.463C173.87 141.53 173.89 141.599 173.903 141.669C173.977 142.032 173.863 142.408 173.6 142.669C173.55 142.721 173.492 142.766 173.429 142.802C173.372 142.843 173.31 142.877 173.245 142.904C173.11 142.964 172.963 142.994 172.816 142.993Z" fill="#565B5F"/>
<path fill-rule="evenodd" clip-rule="evenodd" d="M172.816 146.611C172.204 146.611 171.707 147.105 171.707 147.714C171.707 148.323 172.204 148.817 172.816 148.817C173.429 148.817 173.926 148.323 173.926 147.714C173.926 147.105 173.429 146.611 172.816 146.611ZM171.707 153.538C171.707 152.929 172.204 152.435 172.816 152.435C173.429 152.435 173.926 152.929 173.926 153.538C173.926 154.147 173.429 154.641 172.816 154.641C172.204 154.641 171.707 154.147 171.707 153.538ZM172.816 158.266C172.204 158.266 171.707 158.76 171.707 159.369C171.707 159.979 172.204 160.472 172.816 160.472C173.429 160.472 173.926 159.979 173.926 159.369C173.926 158.76 173.429 158.266 172.816 158.266ZM171.707 165.194C171.707 164.584 172.204 164.09 172.816 164.09C173.429 164.09 173.926 164.584 173.926 165.194C173.926 165.803 173.429 166.297 172.816 166.297C172.204 166.297 171.707 165.803 171.707 165.194ZM172.816 169.914C172.202 169.918 171.707 170.414 171.707 171.025V171.039C171.711 171.646 172.207 172.135 172.816 172.135C173.426 172.135 173.921 171.646 173.926 171.039C173.929 170.744 173.815 170.459 173.606 170.247C173.398 170.036 173.114 169.916 172.816 169.914ZM171.707 176.849C171.707 176.24 172.204 175.746 172.816 175.746C173.429 175.746 173.926 176.24 173.926 176.849C173.926 177.458 173.429 177.952 172.816 177.952C172.204 177.952 171.707 177.458 171.707 176.849ZM171.707 182.673C171.707 182.064 172.204 181.57 172.816 181.57C173.429 181.57 173.926 182.064 173.926 182.673C173.926 183.282 173.429 183.776 172.816 183.776C172.204 183.776 171.707 183.282 171.707 182.673Z" fill="#565B5F"/>
<path d="M134.998 112.931H202.485V177.312H134.998V112.931Z" fill="#323537"/>
<g opacity="0.5">
<path d="M141.106 118.755H196.384V171.488H141.106V118.755Z" fill="#565B5F"/>
</g>
<path d="M134.624 112.53H203.258V177.919H134.624V112.53Z" stroke="#565B5F" stroke-width="0.827173"/>
<rect x="147.592" y="128.469" width="16.8945" height="16.8746" rx="8.43732" fill="#565B5F"/>
<rect x="155.777" y="137.485" width="21.3937" height="23.5463" fill="#323537"/>
<path fill-rule="evenodd" clip-rule="evenodd" d="M175.606 161.227C176.211 161.232 176.817 161.237 177.415 161.237C177.415 160.237 177.415 159.274 177.334 158.229L177.297 156.715L177.334 155.244C177.371 154.662 177.359 154.043 177.346 153.416C177.339 153.045 177.331 152.672 177.334 152.302C177.337 151.831 177.356 151.366 177.374 150.902C177.395 150.389 177.415 149.878 177.415 149.361L177.437 147.743L177.489 146.272C177.437 145.294 177.437 144.28 177.489 143.331C177.541 142.382 177.556 141.353 177.489 140.39C177.455 139.889 177.47 139.382 177.485 138.872C177.5 138.4 177.514 137.925 177.489 137.448C177.481 137.28 177.34 137.15 177.171 137.154C176.957 137.161 176.744 137.168 176.53 137.176C174.961 137.23 173.393 137.284 171.825 137.213H170.486H169.148H166.471C165.792 137.218 165.112 137.241 164.433 137.264C163.327 137.301 162.22 137.337 161.117 137.301H155.77C155.694 137.305 155.633 137.365 155.63 137.441C155.63 137.766 155.632 138.092 155.635 138.418C155.64 139.071 155.644 139.725 155.63 140.382C155.622 140.713 155.612 141.043 155.602 141.372C155.583 142.024 155.563 142.674 155.563 143.324C155.607 143.809 155.607 144.302 155.607 144.794L155.541 146.265V149.206C155.541 149.861 155.534 150.516 155.528 151.17C155.515 152.479 155.502 153.786 155.541 155.089C155.6 155.742 155.58 156.397 155.561 157.052C155.551 157.379 155.541 157.705 155.541 158.031V160.972C155.541 161.119 155.66 161.237 155.807 161.237C156.489 161.237 157.175 161.257 157.861 161.277C158.982 161.31 160.105 161.343 161.22 161.289C162.108 161.237 163.01 161.222 163.927 161.289C164.539 161.333 165.137 161.318 165.734 161.303C166.031 161.296 166.328 161.289 166.626 161.289C166.907 161.28 167.187 161.272 167.467 161.263C168.967 161.216 170.452 161.169 172.017 161.237C173.181 161.208 174.394 161.217 175.606 161.227ZM176.994 157.884V160.825H176.964C176.548 160.822 176.135 160.823 175.723 160.825C174.386 160.829 173.062 160.834 171.677 160.671C170.534 160.734 169.348 160.713 168.159 160.692C167.563 160.681 166.967 160.671 166.374 160.671C166.078 160.671 165.782 160.665 165.486 160.659C164.896 160.648 164.308 160.636 163.727 160.671C162.854 160.722 161.974 160.722 161.087 160.722H155.965C155.967 160.498 155.966 160.273 155.966 160.049C155.966 159.354 155.966 158.657 156.029 157.965C156.075 157.453 156.055 156.941 156.034 156.428C156.016 155.961 155.997 155.493 156.029 155.023C156.082 153.849 156.087 152.673 156.093 151.495C156.096 150.711 156.1 149.925 156.118 149.14C156.118 148.811 156.127 148.483 156.137 148.155C156.157 147.502 156.177 146.85 156.118 146.199C156.106 146.046 156.092 145.893 156.078 145.741C156.046 145.401 156.014 145.063 156.014 144.728C156.028 144.236 156.067 143.745 156.132 143.257C156.172 142.514 156.117 141.767 156.063 141.021C156.045 140.786 156.028 140.551 156.014 140.316C155.978 139.718 156.003 139.117 156.027 138.517C156.039 138.234 156.05 137.951 156.056 137.668C157.743 137.705 159.43 137.699 161.117 137.588C162.201 137.516 163.287 137.567 164.373 137.618C165.073 137.651 165.772 137.683 166.471 137.683H169.14H170.479L171.817 137.632C173.005 137.553 174.193 137.579 175.381 137.606C175.873 137.616 176.364 137.627 176.855 137.631C176.837 138.188 176.847 138.734 176.856 139.286C176.862 139.614 176.868 139.944 176.868 140.279C176.868 140.615 176.86 140.945 176.853 141.274C176.838 141.924 176.824 142.566 176.868 143.221C176.921 144.2 176.921 145.182 176.868 146.162C176.874 146.368 176.884 146.575 176.895 146.784C176.909 147.066 176.923 147.349 176.927 147.633C176.931 147.889 176.907 148.133 176.883 148.376C176.86 148.601 176.838 148.826 176.838 149.059L176.942 152.001C176.942 152.346 176.934 152.679 176.927 153.007C176.912 153.65 176.898 154.275 176.942 154.942L176.994 156.413V157.884ZM176.855 137.631C176.958 137.631 177.061 137.632 177.164 137.632L176.868 137.338C176.863 137.436 176.859 137.533 176.855 137.631ZM156.056 137.668C156.057 137.57 156.058 137.472 156.058 137.374L155.77 137.661C155.865 137.664 155.96 137.666 156.056 137.668ZM155.965 160.722H155.77L155.962 160.906C155.963 160.845 155.964 160.783 155.965 160.722Z" fill="#323537"/>
<path d="M181.114 147.802L173.896 161.774L189.907 161.259L181.543 147.78C181.496 147.704 181.411 147.659 181.322 147.664C181.232 147.668 181.152 147.721 181.114 147.802Z" fill="#565B5F"/>
<path fill-rule="evenodd" clip-rule="evenodd" d="M181.262 147.368C181.079 147.392 180.921 147.505 180.84 147.67C180.663 148.024 180.483 148.378 180.302 148.732C179.887 149.548 179.471 150.365 179.095 151.185L178.156 152.928L177.291 154.685C177.051 155.145 176.826 155.608 176.602 156.07C176.252 156.791 175.905 157.507 175.508 158.193C175.383 158.424 175.249 158.652 175.115 158.881C174.917 159.218 174.719 159.555 174.547 159.906C174.259 160.494 173.926 161.061 173.593 161.627C173.582 161.675 173.582 161.726 173.593 161.774C173.589 161.858 173.619 161.94 173.676 162.002C173.733 162.064 173.812 162.101 173.896 162.105C174.682 162.144 175.467 162.096 176.251 162.049C176.803 162.016 177.354 161.983 177.904 161.98C178.604 161.976 179.303 161.952 180.003 161.928C180.636 161.906 181.27 161.884 181.905 161.877C182.737 161.868 183.566 161.808 184.394 161.747C184.898 161.711 185.402 161.674 185.906 161.649C186.127 161.649 186.35 161.656 186.572 161.662C187.019 161.675 187.466 161.688 187.91 161.649L189.914 161.553C189.964 161.553 190.013 161.538 190.054 161.509C190.121 161.47 190.168 161.405 190.185 161.33C190.202 161.255 190.187 161.176 190.143 161.112L189.034 159.384C188.684 158.82 188.336 158.232 187.991 157.619L185.876 154.104C185.551 153.523 185.196 152.935 184.811 152.354C184.709 152.199 184.606 152.046 184.504 151.894C184.224 151.476 183.948 151.065 183.687 150.633L182.593 148.898L182.046 148.03C182.038 148.017 182.031 148.005 182.024 147.993C181.94 147.852 181.879 147.75 181.75 147.567C181.635 147.418 181.448 147.342 181.262 147.368ZM181.327 147.993C181.337 147.974 181.348 147.954 181.358 147.934C181.365 147.934 181.284 147.927 181.284 147.927L181.327 147.993ZM189.449 161.035L187.459 157.928C187.113 157.385 186.789 156.837 186.465 156.289C186.096 155.663 185.727 155.039 185.329 154.428C185.208 154.234 185.086 154.041 184.963 153.848C184.718 153.463 184.474 153.077 184.242 152.685C184.135 152.503 184.03 152.32 183.924 152.137C183.689 151.727 183.453 151.317 183.192 150.92L182.097 149.192L181.543 148.324L181.327 147.993C181.186 148.264 181.045 148.535 180.905 148.807C180.453 149.679 180.001 150.552 179.524 151.413L178.696 153.2L177.808 154.95C177.312 155.875 176.824 156.803 176.336 157.73C175.67 158.996 175.005 160.26 174.32 161.516C174.169 161.517 174.018 161.517 173.867 161.517L174.111 161.899C174.181 161.771 174.251 161.644 174.32 161.516C175.502 161.516 176.688 161.509 177.875 161.45C178.477 161.421 179.078 161.418 179.678 161.415C180.411 161.411 181.143 161.407 181.875 161.355C182.683 161.297 183.494 161.285 184.304 161.273C184.829 161.265 185.353 161.257 185.876 161.237C186.542 161.211 187.209 161.169 187.876 161.127C188.401 161.094 188.925 161.06 189.449 161.035ZM189.449 161.035L189.677 161.391L189.877 161.016C189.734 161.022 189.592 161.028 189.449 161.035Z" fill="#565B5F"/>
</svg>
